<svg xmlns="http://www.w3.org/2000/svg" width="24" height="24" viewBox="0 0 24 24" fill="none">
    <mask id="path-1-inside-1_2589_776" fill="white">
        <path fill-rule="evenodd" clip-rule="evenodd" d="M12.2162 1.22465C12.0982 1.102 11.9018 1.102 11.7838 1.22465L9.11322 4.00002H3C1.89543 4.00002 1 4.89545 1 6.00002V21C1 22.1046 1.89543 23 3 23H21C22.1046 23 23 22.1046 23 21V6.00002C23 4.89545 22.1046 4.00002 21 4.00002H14.8868L12.2162 1.22465Z"/>
    </mask>
    <path d="M11.7838 1.22465L10.4868 -0.0234289L10.4868 -0.0234281L11.7838 1.22465ZM12.2162 1.22465L13.5132 -0.0234281L13.5132 -0.0234289L12.2162 1.22465ZM9.11322 4.00002V5.80002C9.60262 5.80002 10.0709 5.60074 10.4103 5.24809L9.11322 4.00002ZM14.8868 4.00002L13.5897 5.24809C13.9291 5.60074 14.3974 5.80002 14.8868 5.80002V4.00002ZM13.0809 2.47272C12.4908 3.08597 11.5092 3.08597 10.9191 2.47272L13.5132 -0.0234289C12.6871 -0.881977 11.3129 -0.881978 10.4868 -0.0234289L13.0809 2.47272ZM10.4103 5.24809L13.0809 2.47272L10.4868 -0.0234281L7.81619 2.75194L10.4103 5.24809ZM3 5.80002H9.11322V2.20002H3V5.80002ZM2.8 6.00002C2.8 5.88956 2.88954 5.80002 3 5.80002V2.20002C0.901318 2.20002 -0.8 3.90134 -0.8 6.00002H2.8ZM2.8 21V6.00002H-0.8V21H2.8ZM3 21.2C2.88954 21.2 2.8 21.1105 2.8 21H-0.8C-0.8 23.0987 0.901316 24.8 3 24.8V21.2ZM21 21.2H3V24.8H21V21.2ZM21.2 21C21.2 21.1105 21.1105 21.2 21 21.2V24.8C23.0987 24.8 24.8 23.0987 24.8 21H21.2ZM21.2 6.00002V21H24.8V6.00002H21.2ZM21 5.80002C21.1105 5.80002 21.2 5.88956 21.2 6.00002H24.8C24.8 3.90134 23.0987 2.20002 21 2.20002V5.80002ZM14.8868 5.80002H21V2.20002H14.8868V5.80002ZM10.9191 2.47272L13.5897 5.24809L16.1838 2.75194L13.5132 -0.0234281L10.9191 2.47272Z" fill="#C4C4C4" mask="url(#path-1-inside-1_2589_776)"/>
    <circle cx="12" cy="12" r="3.1" stroke="#C4C4C4" stroke-width="1.8"/>
    <path d="M5 22V22C5 19.7909 6.79086 18 9 18H15C17.2091 18 19 19.7909 19 22V22" stroke="#C4C4C4" stroke-width="1.8"/>
</svg>